<svg width="30" height="30" viewBox="0 0 30 30" fill="none" xmlns="http://www.w3.org/2000/svg">
<rect width="30" height="30" rx="6" fill="#EEE9DB"/>
<path d="M13.172 9.49V18.508C13.172 19.624 12.83 20.506 12.146 21.154C11.474 21.802 10.586 22.126 9.482 22.126C8.378 22.126 7.484 21.802 6.8 21.154C6.128 20.506 5.792 19.624 5.792 18.508H7.862C7.874 19.06 8.012 19.498 8.276 19.822C8.552 20.146 8.954 20.308 9.482 20.308C10.01 20.308 10.412 20.146 10.688 19.822C10.964 19.486 11.102 19.048 11.102 18.508V9.49H13.172ZM25.2582 13.216C25.2582 13.852 25.1082 14.452 24.8082 15.016C24.5082 15.58 24.0282 16.042 23.3682 16.402C22.7082 16.75 21.8622 16.924 20.8302 16.924H18.5622V22H16.5102V9.49H20.8302C21.7902 9.49 22.6002 9.658 23.2602 9.994C23.9322 10.318 24.4302 10.762 24.7542 11.326C25.0902 11.89 25.2582 12.52 25.2582 13.216ZM20.8302 15.25C21.6102 15.25 22.1922 15.076 22.5762 14.728C22.9602 14.368 23.1522 13.864 23.1522 13.216C23.1522 11.848 22.3782 11.164 20.8302 11.164H18.5622V15.25H20.8302Z" fill="#282828"/>
</svg>
