<svg xmlns="http://www.w3.org/2000/svg" width="202" height="36" viewBox="0 0 202 36" fill="none">
<path d="M52.896 9.32V21.344C52.896 22.832 52.44 24.008 51.528 24.872C50.632 25.736 49.448 26.168 47.976 26.168C46.504 26.168 45.312 25.736 44.4 24.872C43.504 24.008 43.056 22.832 43.056 21.344H45.816C45.832 22.08 46.016 22.664 46.368 23.096C46.736 23.528 47.272 23.744 47.976 23.744C48.68 23.744 49.216 23.528 49.584 23.096C49.952 22.648 50.136 22.064 50.136 21.344V9.32H52.896ZM69.4669 19.064C69.4669 19.56 69.4349 20.008 69.3709 20.408H59.2669C59.3469 21.464 59.7389 22.312 60.4429 22.952C61.1469 23.592 62.0109 23.912 63.0349 23.912C64.5069 23.912 65.5469 23.296 66.1549 22.064H69.1069C68.7069 23.28 67.9789 24.28 66.9229 25.064C65.8829 25.832 64.5869 26.216 63.0349 26.216C61.7709 26.216 60.6349 25.936 59.6269 25.376C58.6349 24.8 57.8509 24 57.2749 22.976C56.7149 21.936 56.4349 20.736 56.4349 19.376C56.4349 18.016 56.7069 16.824 57.2509 15.8C57.8109 14.76 58.5869 13.96 59.5789 13.4C60.5869 12.84 61.7389 12.56 63.0349 12.56C64.2829 12.56 65.3949 12.832 66.3709 13.376C67.3469 13.92 68.1069 14.688 68.6509 15.68C69.1949 16.656 69.4669 17.784 69.4669 19.064ZM66.6109 18.2C66.5949 17.192 66.2349 16.384 65.5309 15.776C64.8269 15.168 63.9549 14.864 62.9149 14.864C61.9709 14.864 61.1629 15.168 60.4909 15.776C59.8189 16.368 59.4189 17.176 59.2909 18.2H66.6109ZM71.2474 19.328C71.2474 18 71.5194 16.824 72.0634 15.8C72.6234 14.776 73.3754 13.984 74.3194 13.424C75.2794 12.848 76.3354 12.56 77.4874 12.56C78.5274 12.56 79.4314 12.768 80.1994 13.184C80.9834 13.584 81.6074 14.088 82.0714 14.696V12.776H84.8314V26H82.0714V24.032C81.6074 24.656 80.9754 25.176 80.1754 25.592C79.3754 26.008 78.4634 26.216 77.4394 26.216C76.3034 26.216 75.2634 25.928 74.3194 25.352C73.3754 24.76 72.6234 23.944 72.0634 22.904C71.5194 21.848 71.2474 20.656 71.2474 19.328ZM82.0714 19.376C82.0714 18.464 81.8794 17.672 81.4954 17C81.1274 16.328 80.6394 15.816 80.0314 15.464C79.4234 15.112 78.7674 14.936 78.0634 14.936C77.3594 14.936 76.7034 15.112 76.0954 15.464C75.4874 15.8 74.9914 16.304 74.6074 16.976C74.2394 17.632 74.0554 18.416 74.0554 19.328C74.0554 20.24 74.2394 21.04 74.6074 21.728C74.9914 22.416 75.4874 22.944 76.0954 23.312C76.7194 23.664 77.3754 23.84 78.0634 23.84C78.7674 23.84 79.4234 23.664 80.0314 23.312C80.6394 22.96 81.1274 22.448 81.4954 21.776C81.8794 21.088 82.0714 20.288 82.0714 19.376ZM95.097 12.56C96.137 12.56 97.065 12.776 97.881 13.208C98.713 13.64 99.361 14.28 99.825 15.128C100.289 15.976 100.521 17 100.521 18.2V26H97.809V18.608C97.809 17.424 97.513 16.52 96.921 15.896C96.329 15.256 95.521 14.936 94.497 14.936C93.473 14.936 92.657 15.256 92.049 15.896C91.457 16.52 91.161 17.424 91.161 18.608V26H88.425V12.776H91.161V14.288C91.609 13.744 92.177 13.32 92.865 13.016C93.569 12.712 94.313 12.56 95.097 12.56ZM121.909 14.288C121.909 15.136 121.709 15.936 121.309 16.688C120.909 17.44 120.269 18.056 119.389 18.536C118.509 19 117.381 19.232 116.005 19.232H112.981V26H110.245V9.32H116.005C117.285 9.32 118.365 9.544 119.245 9.992C120.141 10.424 120.805 11.016 121.237 11.768C121.685 12.52 121.909 13.36 121.909 14.288ZM116.005 17C117.045 17 117.821 16.768 118.333 16.304C118.845 15.824 119.101 15.152 119.101 14.288C119.101 12.464 118.069 11.552 116.005 11.552H112.981V17H116.005ZM123.607 19.328C123.607 18 123.879 16.824 124.423 15.8C124.983 14.776 125.735 13.984 126.679 13.424C127.639 12.848 128.695 12.56 129.847 12.56C130.887 12.56 131.791 12.768 132.559 13.184C133.343 13.584 133.967 14.088 134.431 14.696V12.776H137.191V26H134.431V24.032C133.967 24.656 133.335 25.176 132.535 25.592C131.735 26.008 130.823 26.216 129.799 26.216C128.663 26.216 127.623 25.928 126.679 25.352C125.735 24.76 124.983 23.944 124.423 22.904C123.879 21.848 123.607 20.656 123.607 19.328ZM134.431 19.376C134.431 18.464 134.239 17.672 133.855 17C133.487 16.328 132.999 15.816 132.391 15.464C131.783 15.112 131.127 14.936 130.423 14.936C129.719 14.936 129.063 15.112 128.455 15.464C127.847 15.8 127.351 16.304 126.967 16.976C126.599 17.632 126.415 18.416 126.415 19.328C126.415 20.24 126.599 21.04 126.967 21.728C127.351 22.416 127.847 22.944 128.455 23.312C129.079 23.664 129.735 23.84 130.423 23.84C131.127 23.84 131.783 23.664 132.391 23.312C132.999 22.96 133.487 22.448 133.855 21.776C134.239 21.088 134.431 20.288 134.431 19.376ZM147.456 12.56C148.496 12.56 149.424 12.776 150.24 13.208C151.072 13.64 151.72 14.28 152.184 15.128C152.648 15.976 152.88 17 152.88 18.2V26H150.168V18.608C150.168 17.424 149.872 16.52 149.28 15.896C148.688 15.256 147.88 14.936 146.856 14.936C145.832 14.936 145.016 15.256 144.408 15.896C143.816 16.52 143.52 17.424 143.52 18.608V26H140.784V12.776H143.52V14.288C143.968 13.744 144.536 13.32 145.224 13.016C145.928 12.712 146.672 12.56 147.456 12.56ZM159.562 15.008V22.328C159.562 22.824 159.674 23.184 159.898 23.408C160.138 23.616 160.538 23.72 161.098 23.72H162.778V26H160.618C159.386 26 158.442 25.712 157.786 25.136C157.13 24.56 156.802 23.624 156.802 22.328V15.008H155.242V12.776H156.802V9.488H159.562V12.776H162.778V15.008H159.562ZM171.036 26.216C169.788 26.216 168.66 25.936 167.652 25.376C166.644 24.8 165.852 24 165.276 22.976C164.7 21.936 164.412 20.736 164.412 19.376C164.412 18.032 164.708 16.84 165.3 15.8C165.892 14.76 166.7 13.96 167.724 13.4C168.748 12.84 169.892 12.56 171.156 12.56C172.42 12.56 173.564 12.84 174.588 13.4C175.612 13.96 176.42 14.76 177.012 15.8C177.604 16.84 177.9 18.032 177.9 19.376C177.9 20.72 177.596 21.912 176.988 22.952C176.38 23.992 175.548 24.8 174.492 25.376C173.452 25.936 172.3 26.216 171.036 26.216ZM171.036 23.84C171.74 23.84 172.396 23.672 173.004 23.336C173.628 23 174.132 22.496 174.516 21.824C174.9 21.152 175.092 20.336 175.092 19.376C175.092 18.416 174.908 17.608 174.54 16.952C174.172 16.28 173.684 15.776 173.076 15.44C172.468 15.104 171.812 14.936 171.108 14.936C170.404 14.936 169.748 15.104 169.14 15.44C168.548 15.776 168.076 16.28 167.724 16.952C167.372 17.608 167.196 18.416 167.196 19.376C167.196 20.8 167.556 21.904 168.276 22.688C169.012 23.456 169.932 23.84 171.036 23.84ZM181.997 11.024C181.501 11.024 181.085 10.856 180.749 10.52C180.413 10.184 180.245 9.768 180.245 9.272C180.245 8.776 180.413 8.36 180.749 8.024C181.085 7.688 181.501 7.52 181.997 7.52C182.477 7.52 182.885 7.688 183.221 8.024C183.557 8.36 183.725 8.776 183.725 9.272C183.725 9.768 183.557 10.184 183.221 10.52C182.885 10.856 182.477 11.024 181.997 11.024ZM183.341 28.592C183.341 29.888 183.013 30.824 182.357 31.4C181.717 31.992 180.781 32.288 179.549 32.288H178.133V29.984H179.069C179.629 29.984 180.021 29.872 180.245 29.648C180.485 29.44 180.605 29.088 180.605 28.592V12.776H183.341V28.592ZM186.021 19.328C186.021 18 186.293 16.824 186.837 15.8C187.397 14.776 188.149 13.984 189.093 13.424C190.053 12.848 191.109 12.56 192.261 12.56C193.301 12.56 194.205 12.768 194.973 13.184C195.757 13.584 196.381 14.088 196.845 14.696V12.776H199.605V26H196.845V24.032C196.381 24.656 195.749 25.176 194.949 25.592C194.149 26.008 193.237 26.216 192.213 26.216C191.077 26.216 190.037 25.928 189.093 25.352C188.149 24.76 187.397 23.944 186.837 22.904C186.293 21.848 186.021 20.656 186.021 19.328ZM196.845 19.376C196.845 18.464 196.653 17.672 196.269 17C195.901 16.328 195.413 15.816 194.805 15.464C194.197 15.112 193.541 14.936 192.837 14.936C192.133 14.936 191.477 15.112 190.869 15.464C190.261 15.8 189.765 16.304 189.381 16.976C189.013 17.632 188.829 18.416 188.829 19.328C188.829 20.24 189.013 21.04 189.381 21.728C189.765 22.416 190.261 22.944 190.869 23.312C191.493 23.664 192.149 23.84 192.837 23.84C193.541 23.84 194.197 23.664 194.805 23.312C195.413 22.96 195.901 22.448 196.269 21.776C196.653 21.088 196.845 20.288 196.845 19.376Z" fill="white"/>
<rect y="3" width="30" height="30" rx="6" fill="white"/>
<path d="M13.036 12.364V20.968C13.036 22.3 12.658 23.326 11.902 24.046C11.158 24.766 10.15 25.126 8.878 25.126C7.546 25.126 6.478 24.748 5.674 23.992C4.87 23.236 4.468 22.162 4.468 20.77H7.528C7.528 21.298 7.636 21.7 7.852 21.976C8.068 22.24 8.38 22.372 8.788 22.372C9.16 22.372 9.448 22.252 9.652 22.012C9.856 21.772 9.958 21.424 9.958 20.968V12.364H13.036ZM25.1523 16.432C25.1523 17.164 24.9843 17.836 24.6483 18.448C24.3123 19.048 23.7963 19.534 23.1003 19.906C22.4043 20.278 21.5403 20.464 20.5083 20.464H18.6003V25H15.5223V12.364H20.5083C21.5163 12.364 22.3683 12.538 23.0643 12.886C23.7603 13.234 24.2823 13.714 24.6303 14.326C24.9783 14.938 25.1523 15.64 25.1523 16.432ZM20.2743 18.016C20.8623 18.016 21.3003 17.878 21.5883 17.602C21.8763 17.326 22.0203 16.936 22.0203 16.432C22.0203 15.928 21.8763 15.538 21.5883 15.262C21.3003 14.986 20.8623 14.848 20.2743 14.848H18.6003V18.016H20.2743Z" fill="#17153A"/>
</svg>