<svg width="196" height="36" viewBox="0 0 196 36" fill="none" xmlns="http://www.w3.org/2000/svg">
<path d="M46.896 9.32V21.344C46.896 22.832 46.44 24.008 45.528 24.872C44.632 25.736 43.448 26.168 41.976 26.168C40.504 26.168 39.312 25.736 38.4 24.872C37.504 24.008 37.056 22.832 37.056 21.344H39.816C39.832 22.08 40.016 22.664 40.368 23.096C40.736 23.528 41.272 23.744 41.976 23.744C42.68 23.744 43.216 23.528 43.584 23.096C43.952 22.648 44.136 22.064 44.136 21.344V9.32H46.896ZM63.4669 19.064C63.4669 19.56 63.4349 20.008 63.3709 20.408H53.2669C53.3469 21.464 53.7389 22.312 54.4429 22.952C55.1469 23.592 56.0109 23.912 57.0349 23.912C58.5069 23.912 59.5469 23.296 60.1549 22.064H63.1069C62.7069 23.28 61.9789 24.28 60.9229 25.064C59.8829 25.832 58.5869 26.216 57.0349 26.216C55.7709 26.216 54.6349 25.936 53.6269 25.376C52.6349 24.8 51.8509 24 51.2749 22.976C50.7149 21.936 50.4349 20.736 50.4349 19.376C50.4349 18.016 50.7069 16.824 51.2509 15.8C51.8109 14.76 52.5869 13.96 53.5789 13.4C54.5869 12.84 55.7389 12.56 57.0349 12.56C58.2829 12.56 59.3949 12.832 60.3709 13.376C61.3469 13.92 62.1069 14.688 62.6509 15.68C63.1949 16.656 63.4669 17.784 63.4669 19.064ZM60.6109 18.2C60.5949 17.192 60.2349 16.384 59.5309 15.776C58.8269 15.168 57.9549 14.864 56.9149 14.864C55.9709 14.864 55.1629 15.168 54.4909 15.776C53.8189 16.368 53.4189 17.176 53.2909 18.2H60.6109ZM65.2474 19.328C65.2474 18 65.5194 16.824 66.0634 15.8C66.6234 14.776 67.3754 13.984 68.3194 13.424C69.2794 12.848 70.3354 12.56 71.4874 12.56C72.5274 12.56 73.4314 12.768 74.1994 13.184C74.9834 13.584 75.6074 14.088 76.0714 14.696V12.776H78.8314V26H76.0714V24.032C75.6074 24.656 74.9754 25.176 74.1754 25.592C73.3754 26.008 72.4634 26.216 71.4394 26.216C70.3034 26.216 69.2634 25.928 68.3194 25.352C67.3754 24.76 66.6234 23.944 66.0634 22.904C65.5194 21.848 65.2474 20.656 65.2474 19.328ZM76.0714 19.376C76.0714 18.464 75.8794 17.672 75.4954 17C75.1274 16.328 74.6394 15.816 74.0314 15.464C73.4234 15.112 72.7674 14.936 72.0634 14.936C71.3594 14.936 70.7034 15.112 70.0954 15.464C69.4874 15.8 68.9914 16.304 68.6074 16.976C68.2394 17.632 68.0554 18.416 68.0554 19.328C68.0554 20.24 68.2394 21.04 68.6074 21.728C68.9914 22.416 69.4874 22.944 70.0954 23.312C70.7194 23.664 71.3754 23.84 72.0634 23.84C72.7674 23.84 73.4234 23.664 74.0314 23.312C74.6394 22.96 75.1274 22.448 75.4954 21.776C75.8794 21.088 76.0714 20.288 76.0714 19.376ZM89.097 12.56C90.137 12.56 91.065 12.776 91.881 13.208C92.713 13.64 93.361 14.28 93.825 15.128C94.289 15.976 94.521 17 94.521 18.2V26H91.809V18.608C91.809 17.424 91.513 16.52 90.921 15.896C90.329 15.256 89.521 14.936 88.497 14.936C87.473 14.936 86.657 15.256 86.049 15.896C85.457 16.52 85.161 17.424 85.161 18.608V26H82.425V12.776H85.161V14.288C85.609 13.744 86.177 13.32 86.865 13.016C87.569 12.712 88.313 12.56 89.097 12.56ZM115.909 14.288C115.909 15.136 115.709 15.936 115.309 16.688C114.909 17.44 114.269 18.056 113.389 18.536C112.509 19 111.381 19.232 110.005 19.232H106.981V26H104.245V9.32H110.005C111.285 9.32 112.365 9.544 113.245 9.992C114.141 10.424 114.805 11.016 115.237 11.768C115.685 12.52 115.909 13.36 115.909 14.288ZM110.005 17C111.045 17 111.821 16.768 112.333 16.304C112.845 15.824 113.101 15.152 113.101 14.288C113.101 12.464 112.069 11.552 110.005 11.552H106.981V17H110.005ZM117.607 19.328C117.607 18 117.879 16.824 118.423 15.8C118.983 14.776 119.735 13.984 120.679 13.424C121.639 12.848 122.695 12.56 123.847 12.56C124.887 12.56 125.791 12.768 126.559 13.184C127.343 13.584 127.967 14.088 128.431 14.696V12.776H131.191V26H128.431V24.032C127.967 24.656 127.335 25.176 126.535 25.592C125.735 26.008 124.823 26.216 123.799 26.216C122.663 26.216 121.623 25.928 120.679 25.352C119.735 24.76 118.983 23.944 118.423 22.904C117.879 21.848 117.607 20.656 117.607 19.328ZM128.431 19.376C128.431 18.464 128.239 17.672 127.855 17C127.487 16.328 126.999 15.816 126.391 15.464C125.783 15.112 125.127 14.936 124.423 14.936C123.719 14.936 123.063 15.112 122.455 15.464C121.847 15.8 121.351 16.304 120.967 16.976C120.599 17.632 120.415 18.416 120.415 19.328C120.415 20.24 120.599 21.04 120.967 21.728C121.351 22.416 121.847 22.944 122.455 23.312C123.079 23.664 123.735 23.84 124.423 23.84C125.127 23.84 125.783 23.664 126.391 23.312C126.999 22.96 127.487 22.448 127.855 21.776C128.239 21.088 128.431 20.288 128.431 19.376ZM141.456 12.56C142.496 12.56 143.424 12.776 144.24 13.208C145.072 13.64 145.72 14.28 146.184 15.128C146.648 15.976 146.88 17 146.88 18.2V26H144.168V18.608C144.168 17.424 143.872 16.52 143.28 15.896C142.688 15.256 141.88 14.936 140.856 14.936C139.832 14.936 139.016 15.256 138.408 15.896C137.816 16.52 137.52 17.424 137.52 18.608V26H134.784V12.776H137.52V14.288C137.968 13.744 138.536 13.32 139.224 13.016C139.928 12.712 140.672 12.56 141.456 12.56ZM153.562 15.008V22.328C153.562 22.824 153.674 23.184 153.898 23.408C154.138 23.616 154.538 23.72 155.098 23.72H156.778V26H154.618C153.386 26 152.442 25.712 151.786 25.136C151.13 24.56 150.802 23.624 150.802 22.328V15.008H149.242V12.776H150.802V9.488H153.562V12.776H156.778V15.008H153.562ZM165.036 26.216C163.788 26.216 162.66 25.936 161.652 25.376C160.644 24.8 159.852 24 159.276 22.976C158.7 21.936 158.412 20.736 158.412 19.376C158.412 18.032 158.708 16.84 159.3 15.8C159.892 14.76 160.7 13.96 161.724 13.4C162.748 12.84 163.892 12.56 165.156 12.56C166.42 12.56 167.564 12.84 168.588 13.4C169.612 13.96 170.42 14.76 171.012 15.8C171.604 16.84 171.9 18.032 171.9 19.376C171.9 20.72 171.596 21.912 170.988 22.952C170.38 23.992 169.548 24.8 168.492 25.376C167.452 25.936 166.3 26.216 165.036 26.216ZM165.036 23.84C165.74 23.84 166.396 23.672 167.004 23.336C167.628 23 168.132 22.496 168.516 21.824C168.9 21.152 169.092 20.336 169.092 19.376C169.092 18.416 168.908 17.608 168.54 16.952C168.172 16.28 167.684 15.776 167.076 15.44C166.468 15.104 165.812 14.936 165.108 14.936C164.404 14.936 163.748 15.104 163.14 15.44C162.548 15.776 162.076 16.28 161.724 16.952C161.372 17.608 161.196 18.416 161.196 19.376C161.196 20.8 161.556 21.904 162.276 22.688C163.012 23.456 163.932 23.84 165.036 23.84ZM175.997 11.024C175.501 11.024 175.085 10.856 174.749 10.52C174.413 10.184 174.245 9.768 174.245 9.272C174.245 8.776 174.413 8.36 174.749 8.024C175.085 7.688 175.501 7.52 175.997 7.52C176.477 7.52 176.885 7.688 177.221 8.024C177.557 8.36 177.725 8.776 177.725 9.272C177.725 9.768 177.557 10.184 177.221 10.52C176.885 10.856 176.477 11.024 175.997 11.024ZM177.341 28.592C177.341 29.888 177.013 30.824 176.357 31.4C175.717 31.992 174.781 32.288 173.549 32.288H172.133V29.984H173.069C173.629 29.984 174.021 29.872 174.245 29.648C174.485 29.44 174.605 29.088 174.605 28.592V12.776H177.341V28.592ZM180.021 19.328C180.021 18 180.293 16.824 180.837 15.8C181.397 14.776 182.149 13.984 183.093 13.424C184.053 12.848 185.109 12.56 186.261 12.56C187.301 12.56 188.205 12.768 188.973 13.184C189.757 13.584 190.381 14.088 190.845 14.696V12.776H193.605V26H190.845V24.032C190.381 24.656 189.749 25.176 188.949 25.592C188.149 26.008 187.237 26.216 186.213 26.216C185.077 26.216 184.037 25.928 183.093 25.352C182.149 24.76 181.397 23.944 180.837 22.904C180.293 21.848 180.021 20.656 180.021 19.328ZM190.845 19.376C190.845 18.464 190.653 17.672 190.269 17C189.901 16.328 189.413 15.816 188.805 15.464C188.197 15.112 187.541 14.936 186.837 14.936C186.133 14.936 185.477 15.112 184.869 15.464C184.261 15.8 183.765 16.304 183.381 16.976C183.013 17.632 182.829 18.416 182.829 19.328C182.829 20.24 183.013 21.04 183.381 21.728C183.765 22.416 184.261 22.944 184.869 23.312C185.493 23.664 186.149 23.84 186.837 23.84C187.541 23.84 188.197 23.664 188.805 23.312C189.413 22.96 189.901 22.448 190.269 21.776C190.653 21.088 190.845 20.288 190.845 19.376Z" fill="#EEE9DB"/>
<rect y="3" width="30" height="30" rx="6" fill="#EEE9DB"/>
<path d="M13.172 12.49V21.508C13.172 22.624 12.83 23.506 12.146 24.154C11.474 24.802 10.586 25.126 9.482 25.126C8.378 25.126 7.484 24.802 6.8 24.154C6.128 23.506 5.792 22.624 5.792 21.508H7.862C7.874 22.06 8.012 22.498 8.276 22.822C8.552 23.146 8.954 23.308 9.482 23.308C10.01 23.308 10.412 23.146 10.688 22.822C10.964 22.486 11.102 22.048 11.102 21.508V12.49H13.172ZM25.2582 16.216C25.2582 16.852 25.1082 17.452 24.8082 18.016C24.5082 18.58 24.0282 19.042 23.3682 19.402C22.7082 19.75 21.8622 19.924 20.8302 19.924H18.5622V25H16.5102V12.49H20.8302C21.7902 12.49 22.6002 12.658 23.2602 12.994C23.9322 13.318 24.4302 13.762 24.7542 14.326C25.0902 14.89 25.2582 15.52 25.2582 16.216ZM20.8302 18.25C21.6102 18.25 22.1922 18.076 22.5762 17.728C22.9602 17.368 23.1522 16.864 23.1522 16.216C23.1522 14.848 22.3782 14.164 20.8302 14.164H18.5622V18.25H20.8302Z" fill="#282828"/>
</svg>
